<svg id="Layer_1" data-name="Layer 1" xmlns="http://www.w3.org/2000/svg" viewBox="0 0 755.858 749.168"><defs><style>.cls-1{fill:none;stroke:#e6e6e6;stroke-miterlimit:10;stroke-width:61.434px;}</style></defs><title>main-bg</title><path class="cls-1" d="M21.72,155.779c166.75-166.75,436.621-166.75,603.371,0h0c133.4,133.4,133.4,349.3,0,482.7-106.632,106.632-279.525,106.632-386.158,0-85.13-85.569-85.13-223.8,0-308.926,68.016-68.016,179.037-68.016,247.053,0,54.413,54.413,54.413,143.054,0,197.467-43.882,43.882-114.531,43.882-157.974,0-35.105-35.105-35.105-91.712,0-126.379h0a71.51,71.51,0,0,1,101.366,0c22.38,22.38,22.38,58.8,0,80.742h0"/></svg>